<svg xmlns="http://www.w3.org/2000/svg" version="1.1" xmlns:xlink="http://www.w3.org/1999/xlink" xmlns:svgjs="http://svgjs.com/svgjs" viewBox="0 0 437.662 437.662" xml:space="preserve" class=""><g>
<g>
	<g>
		<path d="M424.673,155.963l-53.8-44.9v-63.7c0-5.5-4.8-9.7-10.4-9.7h-78.3l-31.4-26.2c-18.5-15.3-45.3-15.3-63.8,0.1l-31.4,26.1
			h-79.3c-5.5,0-10.4,4.1-10.4,9.7v64.7l-52.8,43.9c-2.2,1.9-3.5,4.8-3.4,7.7h0.2v223.9c0,27.6,22.2,50.1,49.7,50.1h318.5
			c27.6,0,49.7-22.6,49.7-50.1v-223.9h0.2C428.173,160.663,426.973,157.863,424.673,155.963z M370.873,137.063l31.5,26.2l-31.5,23.4
			V137.063z M199.773,26.863c11.1-9.2,27.2-9.1,38.3,0.1l12.7,10.7h-63.9L199.773,26.863z M85.873,57.663h265v143.9l-113.9,84.8
			c-10.8,7.9-25.4,7.9-36.1,0l-115-85.6V57.663z M65.873,137.963v47.9l-30.5-22.7L65.873,137.963z M407.873,387.463
			c0.1,16.6-13.2,30.1-29.7,30.2h-318.6c-16.5-0.1-29.8-13.6-29.7-30.1v-204l159.2,118.9c17.7,13.1,41.9,13.1,59.6,0l159.2-118.9
			V387.463z" data-original="#000000" class=""></path>
	</g>
</g>
<g>
	<g>
		<path d="M210.873,137.663h-54c-5.5,0-10,4.5-10,10s4.5,10,10,10h54c5.5,0,10-4.5,10-10S216.373,137.663,210.873,137.663z" data-original="#000000" class=""></path>
	</g>
</g>
<g>
	<g>
		<path d="M280.873,187.663h-124c-5.5,0-10,4.5-10,10s4.5,10,10,10h124c5.5,0,10-4.5,10-10S286.373,187.663,280.873,187.663z" data-original="#000000" class=""></path>
	</g>
</g>
<g>
</g>
<g>
</g>
<g>
</g>
<g>
</g>
<g>
</g>
<g>
</g>
<g>
</g>
<g>
</g>
<g>
</g>
<g>
</g>
<g>
</g>
<g>
</g>
<g>
</g>
<g>
</g>
<g>
</g>
</g></svg>
