<svg xmlns="http://www.w3.org/2000/svg" viewBox="0 0 9 15" fill="none">
<path d="M0.566751 0.901365C0.54882 0.751944 0.535701 0.617138 0.526103 0.5H8.4739C8.4643 0.617138 8.45118 0.751944 8.43325 0.901365C8.36574 1.46395 8.23093 2.22608 7.96316 3.02939C7.43874 4.60263 6.43368 6.25743 4.5 6.97019C2.56632 6.25743 1.56126 4.60263 1.03684 3.02939C0.769074 2.22608 0.634261 1.46395 0.566751 0.901365ZM0.526103 14.5C0.535701 14.3829 0.54882 14.2481 0.566751 14.0986C0.634261 13.536 0.769074 12.7739 1.03684 11.9706C1.56126 10.3974 2.56632 8.74257 4.5 8.02981C6.43368 8.74257 7.43874 10.3974 7.96316 11.9706C8.23093 12.7739 8.36574 13.536 8.43325 14.0986C8.45118 14.2481 8.4643 14.3829 8.4739 14.5H4.5H0.526103Z" stroke="#2D2D2D"/>
</svg>
